<?xml version="1.0" encoding="UTF-8"?>
<svg width="19px" height="14px" viewBox="0 0 19 14" version="1.1" xmlns="http://www.w3.org/2000/svg" xmlns:xlink="http://www.w3.org/1999/xlink">
    <!-- Generator: sketchtool 58 (101010) - https://sketch.com -->
    <title>214A8153-48FD-43A5-BFE2-50806864748D</title>
    <desc>Created with sketchtool.</desc>
    <g id="Page-1" stroke="none" stroke-width="1" fill="none" fill-rule="evenodd">
        <g id="UI-Kit-module-5" transform="translate(-376.000000, -1207.000000)" fill="#FFFFFF" fill-rule="nonzero">
            <g id="Checkboxes" transform="translate(130.000000, 960.000000)">
                <g id="Checked" transform="translate(0.000000, 239.000000)">
                    <path d="M264.65678,9.93259586 L262.989714,8.32992116 C262.76113,8.11000124 262.483128,8 262.156352,8 C261.829276,8 261.551274,8.11000124 261.32269,8.32992116 L253.281287,16.0723986 L249.677396,12.5959054 C249.448554,12.3759029 249.170724,12.2660255 248.843948,12.2660255 C248.516958,12.2660255 248.239128,12.3759029 248.010286,12.5959054 L246.34322,14.1986214 C246.114378,14.4185826 246,14.6857638 246,15.0000826 C246,15.3141536 246.114378,15.5815825 246.34322,15.8015025 L250.780559,20.0673629 L252.447754,21.6700376 C252.676467,21.8901226 252.954383,22 253.281287,22 C253.608063,22 253.885979,21.8898337 254.114821,21.6700376 L255.781973,20.0673629 L264.65678,11.5353944 C264.885407,11.3153919 265,11.048252 265,10.7339332 C265,10.4197796 264.885407,10.1525983 264.65678,9.93259586 Z" id="Path-Copy-2-1"></path>
                </g>
            </g>
        </g>
    </g>
</svg>